<?xml version="1.0" encoding="UTF-8" standalone="no"?>
<svg width="497px" height="43px" viewBox="0 0 497 43" version="1.1" xmlns="http://www.w3.org/2000/svg" xmlns:xlink="http://www.w3.org/1999/xlink">
    <!-- Generator: Sketch 45.1 (43504) - http://www.bohemiancoding.com/sketch -->
    <title>crue_rebiun_horiz_posit</title>
    <desc>Created with Sketch.</desc>
    <defs></defs>
    <g id="Symbols" stroke="none" stroke-width="1" fill="none" fill-rule="evenodd">
        <g id="NAV_DESKTOP_grupos" transform="translate(-272.000000, -29.000000)" fill-rule="nonzero">
            <g id="crue_rebiun_horiz_posit" transform="translate(272.000000, 29.000000)">
                <path d="M314.688632,13.2030851 C314.688632,9.66244006 309.685016,10.2800384 309.685016,7.85759292 C309.685016,6.87652967 310.598468,6.4876555 311.696528,6.4876555 C312.814728,6.4876555 313.591043,6.80700412 314.345298,7.1268343 L314.345298,5.66530894 C313.636595,5.3454808 312.768696,5.09374207 311.627,5.09374207 C309.160918,5.09374207 308.040802,6.39607162 308.040802,7.94918085 C308.040802,11.7415638 312.951397,10.8046196 312.951397,13.455298 C312.951397,14.4598541 311.992393,15.0534805 310.668008,15.0534805 C309.48028,15.0534805 308.543332,14.5969944 308.040814,14.2771655 L307.401636,15.5799742 C308.108422,15.9909079 309.045371,16.4018416 310.59848,16.4018416 C312.81474,16.4018416 314.688652,15.4648934 314.688652,13.203081 L314.688632,13.2030851 Z M303.909905,9.64038051 L303.909905,9.64038051 L298.816638,9.64038051 C298.816638,7.92711724 299.821194,6.51114833 301.420335,6.51114833 C303.064549,6.51114833 303.909913,8.13186543 303.909913,9.64038051 L303.909905,9.64038051 Z M305.715231,11.0563494 L305.715231,11.0563494 L305.715231,10.6674728 C305.715231,7.30951644 304.184181,5.09375182 301.398251,5.09375182 C298.793113,5.09375182 297.011758,7.42461345 297.011758,10.5538659 C297.011758,13.6380249 298.655972,16.4018595 302.037421,16.4018595 C303.292278,16.4018595 304.664615,15.9453734 305.44093,15.3057154 L304.938413,14.164019 C304.299234,14.5749528 303.292282,14.9403341 302.37931,14.9403341 C299.980357,14.9403341 298.793113,13.111511 298.793113,11.0563632 L305.715215,11.0563632 L305.715231,11.0563494 Z M292.722144,14.7120752 L292.722144,14.7120752 C292.37882,14.8707907 291.784717,14.9858711 291.236647,14.9858711 C288.427244,14.9858711 287.07887,13.2486318 287.07887,10.8046261 C287.07887,8.22298481 288.92927,6.55671127 291.053946,6.55671127 C291.898348,6.55671127 292.287226,6.67035348 292.722136,6.83098663 L292.722136,14.7120886 L292.722144,14.7120752 Z M294.388414,15.6255265 L294.388414,15.6255265 L294.388414,0.000479114092 L292.722144,0.000479114092 L292.722144,5.27645913 C292.287234,5.16281692 291.739165,5.09376887 290.962849,5.09376887 C287.878691,5.09376887 285.389128,7.56176676 285.389128,10.9192278 C285.389128,14.6425655 287.924738,16.4018765 290.938894,16.4018765 C292.469943,16.4018765 293.726721,16.0129999 294.388434,15.6255615 L294.388414,15.6255265 Z M281.188658,13.7290955 L281.188658,13.7290955 C280.68662,14.25511 279.840776,14.9623758 278.424807,14.9623758 C277.008838,14.9623758 276.323628,14.0724173 276.323628,12.97484 C276.323628,11.7871121 277.100422,11.1239614 279.041926,11.0563494 L281.188658,10.987301 L281.188658,13.7290963 L281.188658,13.7290955 Z M283.085089,16.1736006 L283.085089,16.1736006 C282.947951,15.8302768 282.856846,15.0995161 282.856846,12.0393332 L282.856846,8.74898875 C282.856846,5.9851379 281.212632,5.09374207 279.155568,5.09374207 C277.785151,5.09374207 276.643455,5.3915131 275.341125,6.32845969 L276.026336,7.53776396 C276.597903,7.10477475 277.465322,6.53320788 278.859715,6.53320788 C280.229652,6.53320788 281.18866,7.15080624 281.18866,9.00120577 L281.18866,9.50372337 L278.996376,9.57133327 C276.140937,9.66243885 274.655927,10.9652467 274.655927,13.0899228 C274.655927,15.1450705 276.209037,16.4018477 277.967852,16.4018477 C279.566514,16.4018477 280.619022,15.7626689 281.280256,15.123015 L281.715166,16.1736067 L283.085103,16.1736067 L283.085089,16.1736006 Z M270.366275,14.7120752 L270.366275,14.7120752 C270.022951,14.8707907 269.428847,14.9858711 268.880777,14.9858711 C266.071374,14.9858711 264.723001,13.2486318 264.723001,10.8046261 C264.723001,8.22298481 266.5734,6.55671127 268.698077,6.55671127 C269.54392,6.55671127 269.931357,6.67035348 270.366267,6.83098663 L270.366267,14.7120886 L270.366275,14.7120752 Z M272.033986,15.6255265 L272.033986,15.6255265 L272.033986,0.000479114092 L270.366275,0.000479114092 L270.366275,5.27645913 C269.931365,5.16281692 269.383295,5.09376887 268.606501,5.09376887 C265.522821,5.09376887 263.033226,7.56176676 263.033226,10.9192278 C263.033226,14.6425655 265.568836,16.4018765 268.582992,16.4018765 C270.114041,16.4018765 271.370819,16.0129999 272.033969,15.6255615 L272.033986,15.6255265 Z M260.157194,5.36753141 L260.157194,5.36753141 L258.489483,5.36753141 L258.489483,16.171676 L260.157194,16.171676 L260.157194,5.36753141 Z M260.477022,1.94244628 L260.477022,1.94244628 C260.477022,1.30278836 259.951007,0.776773872 259.31135,0.776773872 C258.672171,0.776773872 258.14616,1.30278836 258.14616,1.94244628 C258.14616,2.58162508 258.672175,3.10763551 259.31135,3.10763551 C259.951007,3.10763551 260.477022,2.58162102 260.477022,1.94244628 Z M255.796605,13.2030891 L255.796605,13.2030891 C255.796605,9.66244412 250.794451,10.2800425 250.794451,7.85759698 C250.794451,6.87653373 251.707902,6.48765956 252.804046,6.48765956 C253.923683,6.48765956 254.700477,6.80700818 255.454737,7.12683836 L255.454737,5.665313 C254.746034,5.34548486 253.878135,5.09374613 252.736438,5.09374613 C250.268441,5.09374613 249.1488,6.39607568 249.1488,7.94918491 C249.1488,11.7415678 254.060815,10.8046237 254.060815,13.4553021 C254.060815,14.4598582 253.101812,15.0534846 251.775506,15.0534846 C250.588257,15.0534846 249.65083,14.5969985 249.148792,14.2771696 L248.509134,15.5799782 C249.217837,15.9909119 250.155264,16.4018457 251.707894,16.4018457 C253.923675,16.4018457 255.796605,15.4648974 255.796605,13.2030851 L255.796605,13.2030891 Z M247.96443,5.41358727 L247.96443,5.41358727 C247.758244,5.27644939 247.346831,5.09375912 246.868286,5.09375912 C246.090533,5.09375912 245.268187,5.25439228 243.784606,6.60275332 L243.554445,5.36755659 L242.184507,5.36755659 L242.184507,16.1736095 L243.852218,16.1736095 L243.852218,8.15535096 C244.537428,7.40109545 245.588016,6.85302141 246.227195,6.85302141 C246.685597,6.85302141 247.027486,6.94412698 247.255727,7.03571167 L247.96443,5.41355316 L247.96443,5.41358727 Z M237.870917,9.64038863 L237.870917,9.64038863 L232.77765,9.64038863 C232.77765,7.92712536 233.782206,6.51115645 235.380867,6.51115645 C237.026998,6.51115645 237.870925,8.13187355 237.870925,9.64038863 L237.870917,9.64038863 Z M239.675764,11.0563575 L239.675764,11.0563575 L239.675764,10.6674809 C239.675764,7.30952456 238.144714,5.09375994 235.358784,5.09375994 C232.754124,5.09375994 230.972778,7.42462157 230.972778,10.5538741 C230.972778,13.638033 232.616513,16.4018676 235.998442,16.4018676 C237.255219,16.4018676 238.625156,15.9453815 239.40195,15.3057236 L238.899433,14.1640272 C238.259775,14.5749609 237.255219,14.9403422 236.339847,14.9403422 C233.943294,14.9403422 232.754129,13.1115191 232.754129,11.0563714 L239.675744,11.0563714 L239.675764,11.0563575 Z M229.560163,5.36752735 L229.560163,5.36752735 L227.938005,5.36752735 L224.488464,14.0268649 L224.443391,14.0268649 L221.359232,5.36752735 L219.645969,5.36752735 L223.757702,16.2412247 L225.082566,16.2412247 L229.560171,5.36752735 L229.560163,5.36752735 Z M217.455143,5.36752735 L217.455143,5.36752735 L215.787432,5.36752735 L215.787432,16.1716719 L217.455143,16.1716719 L217.455143,5.36752735 Z M217.774971,1.94244222 L217.774971,1.94244222 C217.774971,1.3027843 217.248956,0.776769812 216.609298,0.776769812 C215.97012,0.776769812 215.445546,1.3027843 215.445546,1.94244222 C215.445546,2.58162102 215.970124,3.10763145 216.609298,3.10763145 C217.248956,3.10763145 217.774971,2.58161696 217.774971,1.94244222 Z M212.295692,16.1735925 L212.295692,16.1735925 L212.295692,8.90961378 C212.295692,6.2133708 210.743062,5.09373395 209.189953,5.09373395 C207.682875,5.09373395 206.608791,5.7108532 205.329958,6.64828053 L205.101715,5.36753141 L203.729857,5.36753141 L203.729857,16.1735843 L205.397568,16.1735843 L205.397568,8.36154786 C206.243411,7.60729235 207.431139,6.67034414 208.755524,6.67034414 C210.401175,6.67034414 210.6299,8.17742187 210.6299,9.52578292 L210.6299,16.1736128 L212.29569,16.1736128 L212.295692,16.1735925 Z M199.944171,11.1479292 L199.944171,11.1479292 L199.944171,1.1201119 L198.275981,1.1201119 L198.275981,10.9192132 C198.275981,12.1069411 198.025681,13.1575286 197.340471,13.8882913 C196.722872,14.5054106 195.785924,14.8947679 194.348375,14.8947679 C193.045566,14.8947679 192.178146,14.5054118 191.6061,13.9117882 C190.760257,13.0659448 190.532016,11.8110881 190.532016,10.782556 L190.532016,1.12008348 L188.865746,1.12008348 L188.865746,10.7585597 C188.865746,12.1304177 189.116046,13.888271 190.327272,15.0774484 C191.149618,15.8537635 192.406395,16.4018335 194.30091,16.4018335 C196.312422,16.4018335 197.682363,15.8082111 198.573755,14.9168153 C199.554818,13.9117801 199.944171,12.5178626 199.944171,11.1479252 L199.944171,11.1479292 Z M276.051445,34.30262 C276.051445,30.761975 271.049291,31.3795734 271.049291,28.9590362 C271.049291,27.9760565 271.962742,27.5871783 273.058886,27.5871783 C274.179002,27.5871783 274.954838,27.9065269 275.709577,28.2263571 L275.709577,26.7648317 C275.000874,26.4450036 274.132975,26.1947022 272.991278,26.1947022 C270.52328,26.1947022 269.405081,27.4955903 269.405081,29.050141 C269.405081,32.8410866 274.315675,31.9055798 274.315675,34.5548371 C274.315675,35.5593932 273.356672,36.1530196 272.032287,36.1530196 C270.844559,36.1530196 269.907611,35.6965335 269.405093,35.3767045 L268.765914,36.6795132 C269.472701,37.0904469 270.409649,37.5013806 271.962758,37.5013806 C274.179018,37.5013806 276.051469,36.5644324 276.051469,34.30262 L276.051445,34.30262 Z M265.113514,34.8286345 L265.113514,34.8286345 C264.610996,35.354649 263.765632,36.0619148 262.349663,36.0619148 C260.933694,36.0619148 260.248484,35.1719563 260.248484,34.074379 C260.248484,32.8866511 261.025278,32.2254168 262.966782,32.1558885 L265.113514,32.0882786 L265.113514,34.8286366 L265.113514,34.8286345 Z M267.009466,37.2731396 L267.009466,37.2731396 C266.872807,36.9298158 266.781702,36.1990551 266.781702,33.1388722 L266.781702,29.8485278 C266.781702,27.0846769 265.137009,26.1947184 263.079945,26.1947184 C261.710007,26.1947184 260.568311,26.4910509 259.265502,27.4279987 L259.950713,28.637303 C260.522759,28.2043138 261.390658,27.6327469 262.784092,27.6327469 C264.154508,27.6327469 265.113516,28.2503453 265.113516,30.1007448 L265.113516,30.6032624 L262.921232,30.6708723 C260.065793,30.7619779 258.580783,32.0647857 258.580783,34.1894618 C258.580783,36.2446095 260.133414,37.5013867 261.892708,37.5013867 C263.49137,37.5013867 264.543399,36.8622079 265.205112,36.2225541 L265.639543,37.2731457 L267.00948,37.2731457 L267.009466,37.2731396 Z M257.097204,37.1360017 L257.097204,37.1360017 L256.892457,35.9247769 C256.618661,35.9943049 256.435971,35.9943049 256.32089,35.9943049 C255.681232,35.9943049 255.430931,35.7876395 255.430931,34.7610246 L255.430931,21.0999796 L253.762741,21.0999796 L253.762741,35.5138428 C253.762741,36.6555392 254.33335,37.5013786 255.659172,37.5013786 C256.207242,37.5013786 256.594683,37.3882159 257.097201,37.1359977 L257.097204,37.1360017 Z M249.519162,31.8144653 L249.519162,31.8144653 C249.519162,34.3721306 248.307937,36.0618929 246.296426,36.0618929 C244.28683,36.0618929 243.07561,34.3721265 243.07561,31.8144653 C243.07561,29.2548794 244.241282,27.6106857 246.27437,27.6106857 C248.353494,27.6106857 249.519162,29.2548997 249.519162,31.8144653 L249.519162,31.8144653 Z M251.208929,31.860018 L251.208929,31.860018 C251.208929,30.0772264 250.660859,28.5917291 249.701372,27.587173 C248.832035,26.6972145 247.668279,26.1946969 246.274366,26.1946969 C244.926005,26.1946969 243.762253,26.6972145 242.892913,27.587173 C241.933909,28.5917291 241.385835,30.0772304 241.385835,31.860018 C241.385835,33.6413683 241.91185,35.1719429 242.892913,36.1769984 C243.738756,37.0448974 244.903945,37.5013835 246.252306,37.5013835 C247.644303,37.5013835 248.832031,37.0209214 249.677871,36.1530224 C250.66085,35.1484663 251.20892,33.6413886 251.20892,31.8600383 L251.208929,31.860018 Z M238.76394,37.273114 L238.76394,37.273114 L238.76394,30.0096226 C238.76394,27.3129005 237.209393,26.194701 235.656284,26.194701 C234.149206,26.194701 233.075122,26.8103829 231.796289,27.7478102 L231.568046,26.4689776 L230.19763,26.4689776 L230.19763,37.2731221 L231.863899,37.2731221 L231.863899,29.4615323 C232.709743,28.7067936 233.897471,27.7698495 235.221377,27.7698495 C236.867507,27.7698495 237.096231,29.2788437 237.096231,30.6252882 L237.096231,37.2731181 L238.763942,37.2731181 L238.76394,37.273114 Z M237.757463,23.1565451 L237.757463,23.1565451 L237.757463,22.6070338 L236.593712,22.6070338 L236.593712,22.8352768 C236.593712,23.1786006 236.387046,23.4073228 236.091194,23.4073228 C235.816919,23.4073228 235.495651,23.2701849 235.199798,23.1330474 L234.445543,22.7897236 C233.875413,22.5394234 233.532091,22.4698955 233.211783,22.4698955 C232.320866,22.4698955 231.63566,23.1330462 231.63566,24.0464975 L231.63566,24.5945675 L232.801333,24.5945675 L232.801333,24.3663245 C232.801333,24.0244392 233.007519,23.7961949 233.303371,23.7961949 C233.577646,23.7961949 233.897477,23.9333328 234.194767,24.0699908 L234.947585,24.411876 C235.519631,24.6640943 235.862957,24.7317042 236.204362,24.7317042 C237.072261,24.7317042 237.757472,24.0699908 237.757472,23.1565395 L237.757463,23.1565451 Z M225.425635,34.8285765 L225.425635,34.8285765 C224.923118,35.354591 224.079191,36.0618567 222.661784,36.0618567 C221.245815,36.0618567 220.560605,35.1718983 220.560605,34.074321 C220.560605,32.8865931 221.33692,32.2253588 223.278904,32.1558304 L225.425635,32.0882205 L225.425635,34.8285785 L225.425635,34.8285765 Z M227.322066,37.2730815 L227.322066,37.2730815 C227.184928,36.9297577 227.093823,36.1989971 227.093823,33.1388142 L227.093823,29.8484697 C227.093823,27.0846189 225.449609,26.1946604 223.392545,26.1946604 C222.022608,26.1946604 220.880432,26.4909928 219.578102,27.4279407 L220.263313,28.6372449 C220.83488,28.2042557 221.702299,27.6326888 223.096692,27.6326888 C224.466629,27.6326888 225.425637,28.2502872 225.425637,30.1006867 L225.425637,30.6032043 L223.233353,30.6708142 C220.378398,30.7619198 218.892904,32.0647277 218.892904,34.1894038 C218.892904,36.2445515 220.446014,37.5013286 222.204829,37.5013286 C223.805407,37.5013286 224.85552,36.8621498 225.517233,36.222496 L225.952143,37.2730876 L227.32208,37.2730876 L227.322066,37.2730815 Z M215.150863,31.7683854 L215.150863,31.7683854 C215.150863,34.4411315 213.620292,36.0618567 211.35848,36.0618567 C210.651693,36.0618567 210.216784,35.9026618 209.623161,35.6288675 L209.623161,27.9759944 C210.1252,27.8153612 210.697246,27.7021986 211.473561,27.7021986 C213.437604,27.7021986 215.150867,28.9349997 215.150867,31.7683749 L215.150863,31.7683854 Z M216.841108,31.7448898 L216.841108,31.7448898 C216.841108,28.2958287 214.761985,26.1946373 211.495616,26.1946373 C209.942986,26.1946373 208.68573,26.673662 207.95545,26.9254 L207.95545,42.6861828 L209.623161,42.6861828 L209.623161,37.1580183 C210.079647,37.3421471 210.627717,37.5013421 211.428008,37.5013421 C214.122814,37.5013421 216.841104,35.5138063 216.841104,31.7449081 L216.841108,31.7448898 Z M205.444771,34.3025551 L205.444771,34.3025551 C205.444771,30.7619101 200.442617,31.3795085 200.442617,28.9589713 C200.442617,27.9759916 201.356547,27.5871134 202.452212,27.5871134 C203.572328,27.5871134 204.348643,27.906462 205.102902,28.2262922 L205.102902,26.7647668 C204.394199,26.4449387 203.52678,26.1946373 202.384604,26.1946373 C199.917085,26.1946373 198.798886,27.4955254 198.798886,29.0500761 C198.798886,32.8410216 203.70948,31.9055148 203.70948,34.5547721 C203.70948,35.5593282 202.750477,36.1529547 201.425608,36.1529547 C200.236443,36.1529547 199.300932,35.6964685 198.798894,35.3766396 L198.159236,36.6794483 C198.866023,37.090382 199.80345,37.5013157 201.356559,37.5013157 C203.57234,37.5013157 205.444783,36.5643675 205.444783,34.3025551 L205.444771,34.3025551 Z M196.312166,37.2730747 L196.312166,37.2730747 L196.312166,35.7199654 L190.531776,35.7199654 L190.531776,30.3289168 L195.557439,30.3289168 L195.557439,28.7983463 L190.531776,28.7983463 L190.531776,23.7726831 L195.603483,23.7726831 L196.242662,22.2195738 L188.865523,22.2195738 L188.865523,37.2730544 L196.312215,37.2730544 L196.312166,37.2730747 Z M496.979808,13.2029917 C496.979808,9.66234672 491.978101,10.2799451 491.978101,7.85892067 C491.978101,6.87642008 492.891073,6.48706274 493.987696,6.48706274 C495.107333,6.48706274 495.883648,6.80689088 496.638387,7.12672065 L496.638387,5.66519529 C495.929204,5.34536715 495.061785,5.09506577 493.919609,5.09506577 C491.451611,5.09506577 490.333891,6.39595391 490.333891,7.95050455 C490.333891,11.7414501 495.244485,10.8059433 495.244485,13.4547134 C495.244485,14.4597486 494.285003,15.053375 492.960613,15.053375 C491.773365,15.053375 490.835937,14.5968889 490.333899,14.27706 L489.694241,15.5793895 C490.401507,15.9903232 491.338455,16.4017361 492.891085,16.4017361 C495.107345,16.4017361 496.979796,15.4643087 496.979796,13.2029755 L496.979808,13.2029917 Z M486.202989,13.7290062 L486.202989,13.7290062 C485.700472,14.2550207 484.854628,14.9622865 483.438659,14.9622865 C482.021249,14.9622865 481.336043,14.072328 481.336043,12.9742675 C481.336043,11.7870188 482.112837,11.1257845 484.054341,11.0562561 L486.202993,10.9886462 L486.202993,13.7290042 L486.202989,13.7290062 Z M488.098941,16.1730322 L488.098941,16.1730322 C487.960365,15.8297084 487.86926,15.0989477 487.86926,12.039252 L487.86926,8.74890758 C487.86926,5.98505674 486.225046,5.09509825 484.169419,5.09509825 C482.799481,5.09509825 481.655869,5.3909512 480.354976,6.32837852 L481.040187,7.53768279 C481.610316,7.10469358 482.477736,6.53312671 483.871649,6.53312671 C485.242066,6.53312671 486.20299,7.15024597 486.20299,9.00112461 L486.20299,9.50316309 L484.008786,9.57077299 C481.153347,9.66235809 479.668337,10.9646864 479.668337,13.0893625 C479.668337,15.1449894 481.222883,16.4017665 482.982178,16.4017665 C484.58084,16.4017665 485.630948,15.7621086 486.294103,15.1229339 L486.727092,16.1730423 L488.09895,16.1730423 L488.098941,16.1730322 Z M478.50793,15.3511647 L478.50793,15.3511647 L477.981915,14.1634368 C477.320202,14.5748497 476.474838,14.9622865 475.28711,14.9622865 C473.071329,14.9622865 471.746465,13.2029917 471.746465,10.8059718 C471.746465,8.36146669 473.071329,6.55663579 475.332662,6.55663579 C476.52039,6.55663579 477.455418,6.92201672 478.142548,7.35500634 L478.142548,5.78032073 C477.411786,5.36890789 476.383254,5.09511043 475.400274,5.09511043 C471.79058,5.09511043 470.054782,7.90499683 470.054782,10.8971009 C470.054782,13.8201475 471.768524,16.401797 475.080932,16.401797 C476.474846,16.401797 477.707647,15.8757825 478.507938,15.3512053 L478.50793,15.3511647 Z M466.426865,9.64028717 L466.426865,9.64028717 L461.333111,9.64028717 C461.333111,7.92654478 462.338146,6.51105498 463.936328,6.51105498 C465.582459,6.51105498 466.426865,8.13321349 466.426865,9.64028717 Z M468.231233,11.0562561 L468.231233,11.0562561 L468.231233,10.668818 C468.231233,7.30942431 466.700662,5.09509703 463.914253,5.09509703 C461.309594,5.09509703 459.528247,7.42452132 459.528247,10.5537494 C459.528247,13.6374293 461.172461,16.401743 464.553911,16.401743 C465.810688,16.401743 467.181104,15.9447778 467.957419,15.305599 L467.454902,14.1634234 C466.815723,14.5748363 465.810688,14.9402176 464.897236,14.9402176 C462.498767,14.9402176 461.309598,13.1113945 461.309598,11.0562467 L468.231213,11.0562467 L468.231233,11.0562561 Z M458.183277,15.32768 L458.183277,15.32768 L457.657741,14.1399521 C457.224273,14.4832759 456.515566,14.9162672 455.739251,14.9162672 C455.030548,14.9162672 454.688659,14.5053335 454.688659,13.5918821 L454.688659,6.78484839 L457.406958,6.78484839 L458.001063,5.36887947 L454.688659,5.36887947 L454.688659,2.42233593 L453.020948,2.99246545 L453.020948,5.36887947 L451.261653,5.36887947 L451.261653,6.78484839 L453.020948,6.78484839 L453.020948,14.0943835 C453.020948,15.4882969 453.775204,16.4017482 455.328313,16.4017482 C456.332869,16.4017482 457.383461,15.9212861 458.183269,15.3276638 L458.183277,15.32768 Z M448.204832,10.7143798 L448.204832,10.7143798 C448.204832,13.2720451 446.995528,14.9622946 444.984016,14.9622946 C442.974421,14.9622946 441.763679,13.2720491 441.763679,10.7143798 C441.763679,8.1552771 442.928869,6.51104686 444.96244,6.51104686 C447.041085,6.51104686 448.204836,8.15526086 448.204836,10.7143798 L448.204832,10.7143798 Z M449.896515,10.7604121 L449.896515,10.7604121 C449.896515,8.97714129 449.346525,7.4921231 448.387521,6.48707979 C447.520101,5.59760448 446.354429,5.09508282 444.962436,5.09508282 C443.614075,5.09508282 442.448407,5.59760042 441.580504,6.48707979 C440.6215,7.49211498 440.073426,8.97713723 440.073426,10.7604121 C440.073426,12.5412832 440.598003,14.0723369 441.580504,15.0769052 C442.426347,15.9448041 443.590578,16.4017694 444.93846,16.4017694 C446.332373,16.4017694 447.520101,15.9213073 448.365466,15.0534083 C449.346529,14.0488522 449.896515,12.5412954 449.896515,10.7604242 L449.896515,10.7604121 Z M437.357044,5.36887622 L437.357044,5.36887622 L435.688854,5.36887622 L435.688854,16.1730208 L437.357044,16.1730208 L437.357044,5.36887622 Z M437.676392,1.94187057 L437.676392,1.94187057 C437.676392,1.30269177 437.150378,0.776681338 436.511203,0.776681338 C435.871545,0.776681338 435.346972,1.30269583 435.346972,1.94187057 C435.346972,2.58152848 435.871549,3.10754297 436.511203,3.10754297 C437.150382,3.10754297 437.676392,2.58152848 437.676392,1.94187057 Z M433.566081,16.0363515 L433.566081,16.0363515 L433.361333,14.8251267 C433.087058,14.8941752 432.904847,14.8941752 432.789766,14.8941752 C432.150109,14.8941752 431.899808,14.6879892 431.899808,13.661374 L431.899808,-0.000117707776 L430.232097,-0.000117707776 L430.232097,14.4141922 C430.232097,15.5558886 430.802227,16.4017279 432.128049,16.4017279 C432.676119,16.4017279 433.06356,16.2880857 433.566077,16.036347 L433.566081,16.0363515 Z M426.168803,10.4626305 L426.168803,10.4626305 C426.168803,12.9742643 424.479036,14.9622833 422.35436,14.9622833 C421.647095,14.9622833 421.12108,14.8706982 420.642055,14.6659508 L420.642055,7.19579063 C421.12108,6.96754758 421.714702,6.64772065 422.856878,6.64772065 C425.005051,6.64772065 426.168803,8.22432272 426.168803,10.4626422 L426.168803,10.4626305 Z M427.836514,10.3931025 L427.836514,10.3931025 C427.836514,6.80690509 425.57518,5.09507511 423.085123,5.09507511 C422.171193,5.09507511 421.395357,5.29982248 420.642059,5.5975927 L420.642059,-0.000124610267 L418.974348,-0.000124610267 L418.974348,15.7165229 C419.45289,16.0363511 420.481905,16.4017332 421.988979,16.4017332 C425.142187,16.4017332 427.836526,14.1854732 427.836526,10.3930741 L427.836514,10.3931025 Z M415.685937,5.36886039 L415.685937,5.36886039 L414.018226,5.36886039 L414.018226,16.173005 L415.685937,16.173005 L415.685937,5.36886039 Z M416.005765,1.94185473 L416.005765,1.94185473 C416.005765,1.30267593 415.481188,0.776665503 414.842013,0.776665503 C414.202355,0.776665503 413.676341,1.30267999 413.676341,1.94185473 C413.676341,2.58151265 414.202355,3.10752714 414.842013,3.10752714 C415.481192,3.10752714 416.005765,2.58151265 416.005765,1.94185473 Z M409.386722,11.8105088 L409.386722,11.8105088 C409.386722,13.4091704 408.22105,14.6203952 406.096378,14.6203952 L403.858542,14.6203952 L403.858542,9.22934654 L406.233518,9.22934654 C408.153446,9.22934654 409.386726,10.3710429 409.386726,11.8105088 L409.386722,11.8105088 Z M408.518823,5.07156603 L408.518823,5.07156603 C408.518823,6.80688479 407.12491,7.69828062 405.800525,7.69828062 L403.858542,7.69828062 L403.858542,2.67261741 L405.777032,2.67261741 C407.649491,2.67261741 408.518828,3.56401324 408.518828,5.07157009 L408.518823,5.07156603 Z M411.213629,11.7649523 L411.213629,11.7649523 C411.213629,9.75344052 409.66052,8.33794666 408.24503,8.10922652 L408.24503,8.08764893 C409.591475,7.53765843 410.322233,6.30437816 410.322233,4.7517521 C410.322233,3.03800971 409.134505,1.12000232 406.394147,1.12000232 L402.190814,1.12000232 L402.190814,16.1730362 L405.959705,16.1730362 C410.002388,16.1730362 411.213597,13.7980596 411.213597,11.7649836 L411.213629,11.7649523 Z M391.82445,9.6402762 L391.82445,9.6402762 L386.731183,9.6402762 C386.731183,7.92653382 387.735739,6.51104402 389.336321,6.51104402 C390.980535,6.51104402 391.824458,8.13320253 391.824458,9.6402762 L391.82445,9.6402762 Z M393.629777,11.0562451 L393.629777,11.0562451 L393.629777,10.6688071 C393.629777,7.30941335 392.100164,5.09508607 389.312796,5.09508607 C386.709099,5.09508607 384.926304,7.42451036 384.926304,10.5537385 C384.926304,13.6374183 386.572434,16.401732 389.951967,16.401732 C391.208744,16.401732 392.579161,15.9447668 393.355476,15.305588 L392.852958,14.1634125 C392.213779,14.5748253 391.208744,14.9402067 390.295293,14.9402067 C387.896823,14.9402067 386.709095,13.1113835 386.709095,11.0562358 L393.629736,11.0562358 L393.629777,11.0562451 Z M380.864959,14.7114918 L380.864959,14.7114918 C380.521635,14.8706868 379.928011,14.9857672 379.379462,14.9857672 C376.570058,14.9857672 375.223634,13.2485279 375.223634,10.8059433 C375.223634,8.22430201 377.072596,6.55660736 379.197272,6.55660736 C380.042637,6.55660736 380.430074,6.66977005 380.864983,6.8304032 L380.864983,14.7115052 L380.864959,14.7114918 Z M382.53267,15.6249431 L382.53267,15.6249431 L382.53267,-0.000104308822 L380.864959,-0.000104308822 L380.864959,5.27778405 C380.430049,5.16270328 379.881979,5.09509378 379.105664,5.09509378 C376.021984,5.09509378 373.531943,7.56117522 373.531943,10.9191316 C373.531943,14.6424693 376.067553,16.4017803 379.083617,16.4017803 C380.61275,16.4017803 381.869527,16.0124242 382.532678,15.6249862 L382.53267,15.6249431 Z M363.761589,14.7114918 L363.761589,14.7114918 C363.419704,14.8706868 362.824162,14.9857672 362.276092,14.9857672 C359.466688,14.9857672 358.119777,13.2485279 358.119777,10.8059433 C358.119777,8.22430201 359.968739,6.55660736 362.093415,6.55660736 C362.939259,6.55660736 363.328612,6.66977005 363.761605,6.8304032 L363.761605,14.7115052 L363.761589,14.7114918 Z M365.4293,15.6249431 L365.4293,15.6249431 L365.4293,-0.000104308822 L363.761589,-0.000104308822 L363.761589,5.27778405 C363.3286,5.16270328 362.778609,5.09509378 362.002294,5.09509378 C358.918614,5.09509378 356.428573,7.56117522 356.428573,10.9191316 C356.428573,14.6424693 358.964183,16.4017803 361.980247,16.4017803 C363.511296,16.4017803 364.766157,16.0124242 365.429308,15.6249862 L365.4293,15.6249431 Z M352.800177,9.64028027 L352.800177,9.64028027 L347.706423,9.64028027 C347.706423,7.92653788 348.711458,6.51104808 350.309641,6.51104808 C351.955771,6.51104808 352.800177,8.13320659 352.800177,9.64028027 Z M354.604545,11.0562492 L354.604545,11.0562492 L354.604545,10.6688111 C354.604545,7.30941741 353.073975,5.09509013 350.288052,5.09509013 C347.684355,5.09509013 345.901559,7.42451442 345.901559,10.5537425 C345.901559,13.6374223 347.545773,16.4017361 350.927223,16.4017361 C352.184479,16.4017361 353.554416,15.9447709 354.330731,15.305592 L353.828693,14.1634165 C353.189035,14.5748294 352.184479,14.9402107 351.270548,14.9402107 C348.872079,14.9402107 347.684351,13.1113876 347.684351,11.0562398 L354.604545,11.0562398 L354.604545,11.0562492 Z M341.155,5.36888069 L341.155,5.36888069 C341.155,6.94404541 339.830615,8.29192734 338.071321,8.29192734 L336.54075,8.29192734 L336.54075,2.67264989 L337.979737,2.67264989 C340.378689,2.67264989 341.155,3.92942706 341.155,5.36889287 L341.155,5.36888069 Z M344.650093,16.1730253 L344.650093,16.1730253 C342.205588,12.3130304 340.492317,9.50314807 340.013324,9.27491923 L340.013324,9.25142359 C341.58801,8.68129407 342.960347,7.33293302 342.960347,5.18622173 C342.960347,2.92488848 341.520402,1.1200454 337.979753,1.1200454 L334.872576,1.1200454 L334.872576,16.1730793 L336.540766,16.1730793 L336.540766,9.77747463 L338.162925,9.77747463 C338.824159,9.91461251 340.241569,12.3351399 342.662578,16.1730793 L344.650113,16.1730793 L344.650093,16.1730253 Z M402.628583,37.2730475 L402.628583,22.2195669 L400.960872,22.2195669 L400.960872,32.7038825 C400.960872,33.5041736 400.984367,34.0287467 401.006425,34.5327057 L400.960872,34.5327057 C400.686596,33.9371628 400.275661,33.3670333 399.247129,31.9970959 L391.938082,22.2195547 L390.202284,22.2195547 L390.202284,37.2730353 L391.870474,37.2730353 L391.870474,26.6060067 C391.870474,25.8057156 391.846499,25.2797011 391.824441,24.7771835 L391.870474,24.7771835 C392.144269,25.3708059 392.555205,25.9428559 393.445159,27.1301006 L401.075944,37.2730272 L402.628575,37.2730272 L402.628583,37.2730475 Z M386.186443,32.2473843 L386.186443,32.2473843 L386.186443,22.2195669 L384.520173,22.2195669 L384.520173,32.0191554 C384.520173,33.2064042 384.268434,34.2569918 383.583225,34.9891918 C382.965627,35.6048737 382.030595,35.994227 380.59065,35.994227 C379.28832,35.994227 378.420421,35.6048709 377.848855,35.0112473 C377.004932,34.1654038 376.776207,32.9105472 376.776207,31.8820151 L376.776207,22.2195426 L375.108497,22.2195426 L375.108497,31.8599271 C375.108497,33.2298646 375.358797,34.9891593 376.570022,36.1769075 C377.391889,36.9532226 378.649146,37.5012926 380.545098,37.5012926 C382.554693,37.5012926 383.926551,36.9076702 384.816522,36.0162744 C385.799501,35.0112392 386.186459,33.6173217 386.186459,32.2473843 L386.186443,32.2473843 Z M371.22643,22.2195669 L371.22643,22.2195669 L369.55824,22.2195669 L369.55824,37.2730475 L371.22643,37.2730475 L371.22643,22.2195669 Z M364.766104,32.9105513 L364.766104,32.9105513 C364.766104,34.5087338 363.602352,35.7199545 361.477676,35.7199545 L359.237919,35.7199545 L359.237919,30.3289059 L361.614813,30.3289059 C363.532824,30.3289059 364.766104,31.4710814 364.766104,32.9105472 L364.766104,32.9105513 Z M363.898205,26.1711619 L363.898205,26.1711619 C363.898205,27.9064807 362.504292,28.7983556 361.179907,28.7983556 L359.237924,28.7983556 L359.237924,23.7726924 L361.157851,23.7726924 C363.03079,23.7726924 363.898209,24.6640882 363.898209,26.1711619 L363.898205,26.1711619 Z M366.594927,32.8645482 L366.594927,32.8645482 C366.594927,30.8535155 365.040381,29.4375425 363.624408,29.2093015 L363.624408,29.1872444 C364.972769,28.6372539 365.703532,27.4044527 365.703532,25.8513476 C365.703532,24.1380843 364.515804,22.2195978 361.773529,22.2195978 L357.571658,22.2195978 L357.571658,37.2730783 L361.340548,37.2730783 C365.383715,37.2730783 366.594927,34.8981017 366.594927,32.8645384 L366.594927,32.8645482 Z M354.376706,37.2730881 L354.376706,37.2730881 L354.376706,35.7199788 L348.598225,35.7199788 L348.598225,30.3289302 L353.623888,30.3289302 L353.623888,28.7983597 L348.598225,28.7983597 L348.598225,23.7726965 L353.669444,23.7726965 L354.308623,22.2195872 L346.930022,22.2195872 L346.930022,37.2730678 L354.376714,37.2730678 L354.376706,37.2730881 Z M341.154903,26.4689435 L341.154903,26.4689435 C341.154903,28.0436291 339.830518,29.3919901 338.071223,29.3919901 L336.540653,29.3919901 L336.540653,23.7727127 L337.979639,23.7727127 C340.378592,23.7727127 341.154903,25.0294899 341.154903,26.4689557 L341.154903,26.4689435 Z M344.649996,37.2730881 L344.649996,37.2730881 C342.205491,33.4126141 340.492219,30.6032109 340.013227,30.374982 L340.013227,30.3510069 C341.587913,29.7808774 342.96025,28.4329955 342.96025,26.2862517 C342.96025,24.0244393 341.520305,22.2195881 337.979656,22.2195881 L334.872479,22.2195881 L334.872479,37.2730687 L336.540669,37.2730687 L336.540669,30.8769767 L338.162827,30.8769767 C338.824062,31.0141146 340.241472,33.4346421 342.66248,37.2730687 L344.650016,37.2730687 L344.649996,37.2730881 Z" id="Shape" fill="#000000"></path>
                <path d="M12.0575558,27.5891353 L12.0575558,2.19324626 L0,2.19324626 L0,27.5891353 C0,34.8694364 5.92903689,40.7917738 13.2165246,40.7917738 C14.938416,40.7917738 16.5874252,40.459958 18.0930534,39.8548256 C14.4258167,37.0195258 12.0575558,32.5774073 12.0575558,27.5891394 L12.0575558,27.5891353 Z M22.7125659,39.8552682 C24.2215601,40.4594432 25.8638577,40.7926955 27.5890947,40.7926955 C34.8732124,40.7926955 40.803711,34.8717792 40.8022493,27.5896104 L40.8022493,2.19230022 L28.7446936,2.19230022 L28.7446936,27.5896104 C28.7446936,32.5764166 26.3764326,37.0185351 22.7125659,39.8552966 L22.7125659,39.8552682 Z M26.4291879,27.5891353 L26.4291879,2.19324626 L14.3769105,2.19324626 L14.3769105,27.5891353 C14.3769105,32.2273658 16.7773006,36.30552 20.4023387,38.6637358 C24.024019,36.3055443 26.4291879,32.2273658 26.4291879,27.5891353 Z" id="Shape" fill="#FF1F1D"></path>
                <path d="M103.45738,10.3236906 C104.906915,10.0666771 106.290759,10.1462746 107.405121,10.4881599 L107.439166,10.411919 L107.439166,4.75524634 C106.957267,4.6334527 106.430773,4.56248616 105.887977,4.56248616 C103.426691,4.56248616 100.966826,5.29132832 97.0392273,8.88425768 L96.3084646,5.35751509 L91.3825221,5.35751509 L91.3825221,36.8291799 L97.3062806,36.8291799 L97.3062806,13.8101839 C98.2451453,12.8391902 99.3451263,12.0187642 100.442708,11.4184261 C101.283277,10.917825 102.315167,10.5270303 103.457338,10.3237235 L103.45738,10.3236906 Z M76.8133578,37.4932763 C66.9648428,37.4932763 61.9051543,30.0432552 61.9051543,21.3925254 C61.9051543,12.4119378 67.563776,4.56149098 77.7402405,4.56149098 C81.0727835,4.56149098 83.9958464,5.49364399 86.0610312,6.62335035 L85.9948598,11.8791913 C83.9330005,10.4785663 81.2703077,9.48407563 77.8773678,9.48407563 C71.6894063,9.48407563 67.8294115,14.4080692 67.8294115,21.0592691 C67.8294115,27.5143164 71.4223246,32.5740454 77.8092768,32.5740454 C81.0727705,32.5740454 83.4645284,31.5066726 85.528292,30.2431838 L87.1912077,34.3012111 C84.7989708,35.8998727 81.0032462,37.49326 76.8133529,37.49326 L76.8133578,37.4932763 Z M132.758861,36.8301255 L131.494893,33.6380766 C129.162115,35.6323281 125.637276,37.4927972 121.444987,37.4927972 C117.252211,37.4927972 111.533172,35.2990718 111.533172,26.0494819 L111.533172,5.35800598 L117.45214,5.35800598 L117.45214,25.5843758 C117.45214,30.3750701 119.51352,32.574082 123.373503,32.574082 C126.900725,32.574082 129.695251,30.4426942 131.026376,28.9116405 L131.026376,5.35798567 L136.882531,5.35798567 L136.882531,25.1206705 C136.882531,33.3705279 137.078647,35.4309216 137.547602,36.8301377 L132.758816,36.8301377 L132.758861,36.8301255 Z M147.927938,22.3242155 C147.927938,27.9152334 151.519409,32.5059584 157.838778,32.5059584 C160.572899,32.5059584 163.363613,31.5723681 165.494981,30.3103166 L167.155976,34.2350447 C164.429524,36.296904 160.371477,37.492785 156.710964,37.492785 C146.464946,37.492785 141.740435,29.4443179 141.740435,20.6617506 C141.740435,11.6101891 146.996276,4.56099968 155.044702,4.56099968 C163.297889,4.56099968 168.088624,11.0146259 168.088624,20.7935881 L168.088624,22.3241587 L147.92795,22.3241587 L147.927938,22.3242155 Z M154.981918,9.34984654 L154.981918,9.34984654 C150.590634,9.34984654 147.862283,13.2103205 147.862283,17.7334499 L161.834508,17.7334499 C161.834508,13.6754226 159.573175,9.34984654 154.981959,9.34984654 L154.981918,9.34984654 Z" id="Shape" fill="#938D76"></path>
            </g>
        </g>
    </g>
</svg>